<svg width="364" height="447" viewBox="0 0 364 447" fill="none" xmlns="http://www.w3.org/2000/svg">
<line y1="-0.5" x2="400" y2="-0.5" transform="matrix(-4.37114e-08 -1 -1 4.37114e-08 0 401)" stroke="black"/>
<line y1="-0.5" x2="400" y2="-0.5" transform="matrix(-4.37114e-08 -1 -1 4.37114e-08 363 400)" stroke="black"/>
<line y1="-0.5" x2="200" y2="-0.5" transform="matrix(-1 -8.74228e-08 -8.74228e-08 1 363 264)" stroke="black"/>
<line y1="-0.5" x2="200" y2="-0.5" transform="matrix(-1 -8.74228e-08 -8.74228e-08 1 363 124)" stroke="black"/>
<line y1="-0.5" x2="363" y2="-0.5" transform="matrix(1 0 0 -1 0 0)" stroke="black"/>
<line y1="-0.5" x2="363" y2="-0.5" transform="matrix(1 0 0 -1 1 400)" stroke="black"/>
<line y1="-0.5" x2="140" y2="-0.5" transform="matrix(-4.37114e-08 -1 -1 4.37114e-08 163 264)" stroke="black"/>
<line y1="-0.5" x2="150" y2="-0.5" transform="matrix(1 0 0 -1 0 300)" stroke="black"/>
<line y1="-0.5" x2="100" y2="-0.5" transform="matrix(0 1 1 0 150 300)" stroke="black"/>
<line y1="-0.5" x2="120" y2="-0.5" transform="matrix(1 0 0 -1 150 350)" stroke="black"/>
<line y1="-0.5" x2="50" y2="-0.5" transform="matrix(-4.37114e-08 1 1 4.37114e-08 270 350)" stroke="black"/>
<line y1="-0.5" x2="200" y2="-0.5" transform="matrix(-1 -8.74228e-08 -8.74228e-08 1 363 1)" stroke="black"/>
<line y1="-0.5" x2="200" y2="-0.5" transform="matrix(-1 -8.74228e-08 -8.74228e-08 1 363 41)" stroke="black"/>
<line y1="-0.5" x2="40" y2="-0.5" transform="matrix(-4.37114e-08 -1 -1 4.37114e-08 163 41)" stroke="black"/>
</svg>
