<svg width="1425" height="377" viewBox="0 0 1425 377" fill="none" xmlns="http://www.w3.org/2000/svg">
<line x1="239.5" y1="44" x2="239.5" y2="57" stroke="black"/>
<line x1="254.5" y1="44" x2="254.5" y2="57" stroke="black"/>
<line x1="273.5" y1="44" x2="273.5" y2="57" stroke="black"/>
<line x1="289.5" y1="44" x2="289.5" y2="57" stroke="black"/>
<line x1="307.5" y1="44" x2="307.5" y2="57" stroke="black"/>
<line x1="322.5" y1="44" x2="322.5" y2="57" stroke="black"/>
<line x1="307" y1="50.5" x2="323" y2="50.5" stroke="black"/>
<line x1="274" y1="50.5" x2="290" y2="50.5" stroke="black"/>
<line x1="239" y1="50.5" x2="255" y2="50.5" stroke="black"/>
<!--<line x1="374.5" x2="374.5" y2="13" stroke="black"/>-->
<line x1="374.5" y1="0" x2="374.5" y2="13" stroke="red"/>
<line x1="489.5" x2="489.5" y2="13" stroke="pink"/>
<line x1="535.5" x2="535.5" y2="13" stroke="pink"/>
<line x1="1029.5" x2="1029.5" y2="13" stroke="pink"/>
<line x1="914.5" x2="914.5" y2="13" stroke="pink"/>
<line x1="650.5" x2="650.5" y2="13" stroke="pink"/>
<line x1="374" y1="6.5" x2="490" y2="6.5" stroke="black"/>
<line x1="535" y1="6.5" x2="651" y2="6.5" stroke="black"/>
<line x1="914" y1="6.5" x2="1030" y2="6.5" stroke="black"/>
<line x1="705.5" y1="57" x2="705.5" y2="70" stroke="black"/>
<line x1="734.5" y1="57" x2="734.5" y2="70" stroke="black"/>
<line x1="767.5" y1="57" x2="767.5" y2="70" stroke="black"/>
<line x1="767.5" y1="57" x2="767.5" y2="70" stroke="black"/>
<line x1="796.5" y1="57" x2="796.5" y2="70" stroke="black"/>
<line x1="832" y1="57" x2="832" y2="70" stroke="black"/>
<line x1="861" y1="57" x2="861" y2="70" stroke="black"/>
<line x1="832" y1="63.5" x2="861" y2="63.5" stroke="black"/>
<line x1="767" y1="63.5" x2="797" y2="63.5" stroke="black"/>
<line x1="705" y1="63.5" x2="735" y2="63.5" stroke="black"/>
<line x1="239.5" y1="320" x2="239.5" y2="333" stroke="black"/>
<line x1="273.5" y1="320" x2="273.5" y2="333" stroke="black"/>
<line x1="307.5" y1="320" x2="307.5" y2="333" stroke="black"/>
<line x1="255.5" y1="320" x2="255.5" y2="333" stroke="black"/>
<line x1="289.5" y1="320" x2="289.5" y2="333" stroke="black"/>
<line x1="323.5" y1="320" x2="323.5" y2="333" stroke="black"/>
<line x1="239" y1="326.5" x2="256" y2="326.5" stroke="black"/>
<line x1="273" y1="326.5" x2="290" y2="326.5" stroke="black"/>
<line x1="307" y1="326.5" x2="324" y2="326.5" stroke="black"/>
<line x1="363.5" y1="364" x2="363.5" y2="377" stroke="black"/>
<line x1="423.5" y1="364" x2="423.5" y2="377" stroke="black"/>
<line x1="472.5" y1="364" x2="472.5" y2="377" stroke="black"/>
<line x1="532.5" y1="364" x2="532.5" y2="377" stroke="black"/>
<line x1="841.5" y1="364" x2="841.5" y2="377" stroke="black"/>
<line x1="949.5" y1="364" x2="949.5" y2="377" stroke="black"/>
<line x1="1015.5" y1="364" x2="1015.5" y2="377" stroke="black"/>
<line x1="1074.5" y1="364" x2="1074.5" y2="377" stroke="black"/>
<line x1="1123.5" y1="364" x2="1123.5" y2="377" stroke="black"/>
<line x1="1183.5" y1="364" x2="1183.5" y2="377" stroke="black"/>
<line x1="1123.5" y1="364" x2="1123.5" y2="377" stroke="black"/>
<line x1="1183.5" y1="364" x2="1183.5" y2="377" stroke="black"/>
<line x1="889.5" y1="364" x2="889.5" y2="377" stroke="black"/>
<line x1="597.5" y1="364" x2="597.5" y2="377" stroke="black"/>
<line x1="658.5" y1="364" x2="658.5" y2="377" stroke="black"/>
<line x1="708.5" y1="364" x2="708.5" y2="377" stroke="black"/>
<line x1="773.5" y1="364" x2="773.5" y2="377" stroke="black"/>
<line x1="385.5" y1="364" x2="385.5" y2="377" stroke="black"/>
<line x1="445.5" y1="364" x2="445.5" y2="377" stroke="black"/>
<line x1="494.5" y1="364" x2="494.5" y2="377" stroke="black"/>
<line x1="554.5" y1="364" x2="554.5" y2="377" stroke="black"/>
<line x1="863.5" y1="364" x2="863.5" y2="377" stroke="black"/>
<line x1="971.5" y1="364" x2="971.5" y2="377" stroke="black"/>
<line x1="1037.5" y1="364" x2="1037.5" y2="377" stroke="black"/>
<line x1="1096.5" y1="364" x2="1096.5" y2="377" stroke="black"/>
<line x1="1145.5" y1="364" x2="1145.5" y2="377" stroke="black"/>
<line x1="1205.5" y1="364" x2="1205.5" y2="377" stroke="black"/>
<line x1="1145.5" y1="364" x2="1145.5" y2="377" stroke="black"/>
<line x1="1205.5" y1="364" x2="1205.5" y2="377" stroke="black"/>
<line x1="911.5" y1="364" x2="911.5" y2="377" stroke="black"/>
<line x1="619.5" y1="364" x2="619.5" y2="377" stroke="black"/>
<line x1="680.5" y1="364" x2="680.5" y2="377" stroke="black"/>
<line x1="730.5" y1="364" x2="730.5" y2="377" stroke="black"/>
<line x1="798.5" y1="364" x2="798.5" y2="377" stroke="black"/>
<line x1="363" y1="370.5" x2="386" y2="370.5" stroke="black"/>
<line x1="423" y1="370.5" x2="446" y2="370.5" stroke="black"/>
<line x1="472" y1="370.5" x2="495" y2="370.5" stroke="black"/>
<line x1="532" y1="370.5" x2="555" y2="370.5" stroke="black"/>
<line x1="841" y1="370.5" x2="864" y2="370.5" stroke="black"/>
<line x1="949" y1="370.5" x2="972" y2="370.5" stroke="black"/>
<line x1="1015" y1="370.5" x2="1038" y2="370.5" stroke="black"/>
<line x1="1074" y1="370.5" x2="1097" y2="370.5" stroke="black"/>
<line x1="1123" y1="370.5" x2="1146" y2="370.5" stroke="black"/>
<line x1="1183" y1="370.5" x2="1206" y2="370.5" stroke="black"/>
<line x1="1123" y1="370.5" x2="1146" y2="370.5" stroke="black"/>
<line x1="1183" y1="370.5" x2="1206" y2="370.5" stroke="black"/>
<line x1="889" y1="370.5" x2="912" y2="370.5" stroke="black"/>
<line x1="597" y1="370.5" x2="620" y2="370.5" stroke="black"/>
<line x1="658" y1="370.5" x2="681" y2="370.5" stroke="black"/>
<line x1="708" y1="370.5" x2="731" y2="370.5" stroke="black"/>
<line x1="773" y1="370.5" x2="799" y2="370.5" stroke="black"/>
<line x1="869" y1="14.5" x2="882" y2="14.5" stroke="black"/>
<line x1="869" y1="56.5" x2="882" y2="56.5" stroke="black"/>
<line x1="875.5" y1="57" x2="875.5" y2="14" stroke="black"/>
<line x1="768.5" y1="140" x2="768.5" y2="127" stroke="black"/>
<line x1="803.5" y1="140" x2="803.5" y2="69" stroke="black"/>
<line x1="768" y1="139.5" x2="804" y2="139.5" stroke="black"/>
<line x1="769" y1="144.5" x2="803" y2="144.5" stroke="black"/>
<line x1="769" y1="186.5" x2="803" y2="186.5" stroke="black"/>
<line x1="769.5" y1="144" x2="769.5" y2="187" stroke="black"/>
<line x1="802.5" y1="144" x2="802.5" y2="187" stroke="black"/>
<line x1="775.5" y1="186" x2="775.5" y2="193" stroke="black"/>
<line x1="796.5" y1="186" x2="796.5" y2="193" stroke="black"/>
<line x1="775" y1="189.5" x2="797" y2="189.5" stroke="black"/>
<line x1="336.5" y1="192" x2="336.5" y2="184" stroke="black"/>
<line x1="343.5" y1="192" x2="343.5" y2="184" stroke="black"/>
<line x1="336" y1="191.5" x2="344" y2="191.5" stroke="black"/>
<line x1="336" y1="184.5" x2="344" y2="184.5" stroke="black"/>
<line x1="508.5" y1="192" x2="508.5" y2="184" stroke="black"/>
<line x1="523.5" y1="192" x2="523.5" y2="184" stroke="black"/>
<line x1="508" y1="191.5" x2="524" y2="191.5" stroke="black"/>
<line x1="508" y1="184.5" x2="524" y2="184.5" stroke="black"/>
<line x1="1044.5" y1="192" x2="1044.5" y2="184" stroke="black"/>
<line x1="1059.5" y1="192" x2="1059.5" y2="184" stroke="black"/>
<line x1="1044" y1="191.5" x2="1060" y2="191.5" stroke="black"/>
<line x1="1044" y1="184.5" x2="1060" y2="184.5" stroke="black"/>
<line x1="1223.5" y1="192" x2="1223.5" y2="184" stroke="black"/>
<line x1="1231.5" y1="192" x2="1231.5" y2="184" stroke="black"/>
<line x1="1223" y1="191.5" x2="1232" y2="191.5" stroke="black"/>
<line x1="1223" y1="184.5" x2="1232" y2="184.5" stroke="black"/>
<line x1="431.5" y1="178" x2="431.5" y2="152" stroke="black"/>
<line x1="438.5" y1="178" x2="438.5" y2="152" stroke="black"/>
<line x1="466.5" y1="178" x2="466.5" y2="152" stroke="black"/>
<line x1="474.5" y1="178" x2="474.5" y2="152" stroke="black"/>
<line x1="481.5" y1="178" x2="481.5" y2="152" stroke="black"/>
<line x1="488.5" y1="178" x2="488.5" y2="152" stroke="black"/>
<line x1="495.5" y1="178" x2="495.5" y2="152" stroke="black"/>
<line x1="502.5" y1="178" x2="502.5" y2="152" stroke="black"/>
<line x1="509.5" y1="178" x2="509.5" y2="152" stroke="black"/>
<line x1="516.5" y1="178" x2="516.5" y2="152" stroke="black"/>
<line x1="523.5" y1="178" x2="523.5" y2="152" stroke="black"/>
<line x1="431" y1="152.5" x2="524" y2="152.5" stroke="black"/>
<line x1="431" y1="177.5" x2="524" y2="177.5" stroke="black"/>
<line x1="1044.5" y1="178" x2="1044.5" y2="152" stroke="black"/>
<line x1="1051.5" y1="178" x2="1051.5" y2="152" stroke="black"/>
<line x1="1058.5" y1="178" x2="1058.5" y2="152" stroke="black"/>
<line x1="1065.5" y1="178" x2="1065.5" y2="152" stroke="black"/>
<line x1="1072.5" y1="178" x2="1072.5" y2="152" stroke="black"/>
<line x1="1079.5" y1="178" x2="1079.5" y2="152" stroke="black"/>
<line x1="1086.5" y1="178" x2="1086.5" y2="152" stroke="black"/>
<line x1="1093.5" y1="178" x2="1093.5" y2="152" stroke="black"/>
<line x1="1100.5" y1="178" x2="1100.5" y2="152" stroke="black"/>
<line x1="1128.5" y1="178" x2="1128.5" y2="152" stroke="black"/>
<line x1="1136.5" y1="178" x2="1136.5" y2="152" stroke="black"/>
<line x1="1044" y1="152.5" x2="1137" y2="152.5" stroke="black"/>
<line x1="1044" y1="177.5" x2="1137" y2="177.5" stroke="black"/>
<path d="M76.5 80.5V97.5L38 98L45.5 142.5L67.5 175L93 199.5L118 236.5L123.5 275.5H146.5V294.5" stroke="black"/>
<path d="M227.5 78.5H135.5L132.5 79.5L128.5 84.5V91.5L132.5 96.5L135.5 97.5H222.5" stroke="black"/>
<line x1="0.5" y1="79" x2="0.5" y2="298" stroke="black"/>
<line y1="297.5" x2="39" y2="297.5" stroke="pink"/>
<line x1="38.5" y1="297" x2="38.5" y2="333" stroke="black"/>
<line x1="38" y1="332.5" x2="331" y2="332.5" stroke="black"/>
<line x1="330.5" y1="332" x2="330.5" y2="377" stroke="black"/>
<line x1="330" y1="376.5" x2="1236" y2="376.5" stroke="black"/>
<line x1="1235.5" y1="377" x2="1235.5" y2="332" stroke="black"/>
<line x1="1235" y1="332.5" x2="1318" y2="332.5" stroke="black"/>
<line x1="1317.5" y1="333" x2="1317.5" y2="267" stroke="black"/>
<line x1="1317" y1="267.5" x2="1425" y2="267.5" stroke="black"/>
<line x1="1424.5" y1="268" x2="1424.5" y2="105" stroke="black"/>
<line x1="1425" y1="105.5" x2="1317" y2="105.5" stroke="black"/>
<line x1="1317.5" y1="106" x2="1317.5" y2="44" stroke="black"/>
<line x1="1318" y1="44.5" x2="1235" y2="44.5" stroke="black"/>
<line x1="1235.5" y1="45" x2="1235.5" stroke="pink"/>
<line x1="1236" y1="0.5" x2="864" y2="0.5" stroke="black"/>
<line x1="864.5" x2="864.5" y2="13" stroke="pink"/>
<line x1="864" y1="12.5" x2="870" y2="12.5" stroke="black"/>
<line x1="869.5" y1="12" x2="869.5" y2="58" stroke="black"/>
<line x1="881.5" y1="12" x2="881.5" y2="139" stroke="black"/>
<line x1="870" y1="57.5" x2="699" y2="57.5" stroke="black"/>
<line x1="699.5" y1="58" x2="699.5" y2="12" stroke="black"/>
<line x1="699" y1="12.5" x2="705" y2="12.5" stroke="black"/>
<line x1="704.5" y1="13" x2="704.5" stroke="pink"/>
<line x1="705" y1="0.5" x2="330" y2="0.5" stroke="black"/>
<line x1="330.5" x2="330.5" y2="45" stroke="pink"/>
<line x1="331" y1="44.5" x2="38" y2="44.5" stroke="black"/>
<line x1="38.5" y1="44" x2="38.5" y2="80" stroke="black"/>
<line x1="39" y1="79.5" y2="79.5" stroke="pink"/>
<line x1="342" y1="364.5" x2="621" y2="364.5" stroke="black"/>
<line x1="627" y1="364.5" x2="745" y2="364.5" stroke="black"/>
<line x1="342.5" y1="365" x2="342.5" y2="241" stroke="black"/>
<line x1="620.5" y1="365" x2="620.5" y2="241" stroke="black"/>
<line x1="627.5" y1="365" x2="627.5" y2="238" stroke="black"/>
<line x1="747.5" y1="365" x2="747.5" y2="238" stroke="black"/>
<line x1="824.5" y1="365" x2="824.5" y2="238" stroke="black"/>
<line x1="744.5" y1="365" x2="744.5" y2="241" stroke="black"/>
<line x1="827.5" y1="365" x2="827.5" y2="241" stroke="black"/>
<line x1="925.5" y1="365" x2="925.5" y2="241" stroke="black"/>
<line x1="928.5" y1="365" x2="928.5" y2="241" stroke="black"/>
<line x1="342" y1="241.5" x2="580" y2="241.5" stroke="black"/>
<line x1="628" y1="238.5" x2="615" y2="238.5" stroke="black"/>
<line x1="621" y1="241.5" x2="615" y2="241.5" stroke="black"/>
<line x1="615.5" y1="242" x2="615.5" y2="238" stroke="black"/>
<line x1="650.5" y1="238" x2="650.5" y2="242" stroke="black"/>
<line x1="650" y1="238.5" x2="737" y2="238.5" stroke="black"/>
<line x1="650" y1="241.5" x2="745" y2="241.5" stroke="black"/>
<line x1="736.5" y1="239" x2="736.5" y2="229" stroke="black"/>
<line x1="739.5" y1="239" x2="739.5" y2="229" stroke="black"/>
<line x1="739" y1="238.5" x2="748" y2="238.5" stroke="black"/>
<line x1="736" y1="229.5" x2="740" y2="229.5" stroke="black"/>
<line x1="580" y1="238.5" x2="342" y2="238.5" stroke="black"/>
<line x1="579.5" y1="238" x2="579.5" y2="242" stroke="black"/>
<line x1="342.5" y1="239" x2="342.5" y2="230" stroke="black"/>
<line x1="343" y1="230.5" x2="328" y2="230.5" stroke="black"/>
<line x1="328.5" y1="230" x2="328.5" y2="321" stroke="black"/>
<line x1="329" y1="320.5" x2="299" y2="320.5" stroke="black"/>
<line x1="299.5" y1="321" x2="299.5" y2="279" stroke="black"/>
<line x1="295.5" y1="321" x2="295.5" y2="279" stroke="black"/>
<line x1="262.5" y1="321" x2="262.5" y2="279" stroke="black"/>
<line x1="266.5" y1="321" x2="266.5" y2="275" stroke="black"/>
<line x1="299" y1="279.5" x2="306" y2="279.5" stroke="black"/>
<line x1="289" y1="279.5" x2="296" y2="279.5" stroke="black"/>
<line x1="289" y1="275.5" x2="306" y2="275.5" stroke="black"/>
<line x1="305.5" y1="280" x2="305.5" y2="275" stroke="black"/>
<line x1="289.5" y1="280" x2="289.5" y2="275" stroke="black"/>
<line x1="296" y1="320.5" x2="266" y2="320.5" stroke="black"/>
<line x1="267" y1="275.5" x2="255" y2="275.5" stroke="black"/>
<line x1="263" y1="279.5" x2="255" y2="279.5" stroke="black"/>
<line x1="255.5" y1="280" x2="255.5" y2="275" stroke="black"/>
<line x1="263" y1="320.5" x2="232" y2="320.5" stroke="black"/>
<line x1="232.5" y1="321" x2="232.5" y2="234" stroke="black"/>
<line x1="232" y1="234.5" x2="306" y2="234.5" stroke="black"/>
<line x1="232" y1="230.5" x2="306" y2="230.5" stroke="black"/>
<line x1="305.5" y1="230" x2="305.5" y2="235" stroke="black"/>
<line x1="228.5" y1="333" x2="228.5" y2="293" stroke="black"/>
<line x1="229" y1="293.5" x2="222" y2="293.5" stroke="black"/>
<line x1="229" y1="283.5" x2="222" y2="283.5" stroke="black"/>
<line x1="222.5" y1="294" x2="222.5" y2="283" stroke="black"/>
<line x1="228.5" y1="284" x2="228.5" y2="209" stroke="black"/>
<line x1="232.5" y1="231" x2="232.5" y2="209" stroke="black"/>
<line x1="228" y1="209.5" x2="233" y2="209.5" stroke="black"/>
<line x1="228" y1="164.5" x2="233" y2="164.5" stroke="black"/>
<line x1="747" y1="364.5" x2="825" y2="364.5" stroke="black"/>
<line x1="824" y1="238.5" x2="896" y2="238.5" stroke="black"/>
<line x1="827" y1="241.5" x2="896" y2="241.5" stroke="black"/>
<line x1="895.5" y1="238" x2="895.5" y2="242" stroke="black"/>
<line x1="919.5" y1="238" x2="919.5" y2="242" stroke="black"/>
<line x1="934.5" y1="238" x2="934.5" y2="242" stroke="black"/>
<line x1="919" y1="238.5" x2="935" y2="238.5" stroke="black"/>
<line x1="919" y1="241.5" x2="926" y2="241.5" stroke="black"/>
<line x1="928" y1="241.5" x2="935" y2="241.5" stroke="black"/>
<line x1="827" y1="364.5" x2="926" y2="364.5" stroke="black"/>
<line x1="928" y1="364.5" x2="992" y2="364.5" stroke="black"/>
<line x1="991.5" y1="365" x2="991.5" y2="241" stroke="black"/>
<line x1="994.5" y1="365" x2="994.5" y2="241" stroke="black"/>
<line x1="958" y1="241.5" x2="992" y2="241.5" stroke="black"/>
<line x1="994" y1="241.5" x2="1040" y2="241.5" stroke="black"/>
<line x1="958" y1="238.5" x2="1040" y2="238.5" stroke="black"/>
<line x1="958.5" y1="242" x2="958.5" y2="238" stroke="black"/>
<line x1="1039.5" y1="242" x2="1039.5" y2="238" stroke="black"/>
<line x1="994" y1="364.5" x2="1109" y2="364.5" stroke="black"/>
<line x1="1108.5" y1="365" x2="1108.5" y2="241" stroke="black"/>
<line x1="1112.5" y1="365" x2="1112.5" y2="241" stroke="black"/>
<line x1="1109" y1="241.5" x2="1064" y2="241.5" stroke="black"/>
<line x1="1112" y1="364.5" x2="1226" y2="364.5" stroke="black"/>
<line x1="1064.5" y1="242" x2="1064.5" y2="238" stroke="black"/>
<line x1="1155.5" y1="242" x2="1155.5" y2="238" stroke="black"/>
<line x1="1180.5" y1="242" x2="1180.5" y2="238" stroke="black"/>
<line x1="1064" y1="238.5" x2="1156" y2="238.5" stroke="black"/>
<line x1="1112" y1="241.5" x2="1156" y2="241.5" stroke="black"/>
<line x1="1225.5" y1="365" x2="1225.5" y2="241" stroke="black"/>
<line x1="1180" y1="238.5" x2="1224" y2="238.5" stroke="black"/>
<line x1="1180" y1="241.5" x2="1226" y2="241.5" stroke="black"/>
<line x1="1223.5" y1="239" x2="1223.5" y2="229" stroke="black"/>
<line x1="1223" y1="229.5" x2="1240" y2="229.5" stroke="black"/>
<line x1="1239.5" y1="229" x2="1239.5" y2="321" stroke="black"/>
<line x1="1239" y1="320.5" x2="1272" y2="320.5" stroke="black"/>
<line x1="1274" y1="320.5" x2="1307" y2="320.5" stroke="black"/>
<line x1="1271.5" y1="321" x2="1271.5" y2="279" stroke="black"/>
<line x1="1274.5" y1="321" x2="1274.5" y2="279" stroke="black"/>
<line x1="1272" y1="279.5" x2="1262" y2="279.5" stroke="black"/>
<line x1="1284" y1="275.5" x2="1262" y2="275.5" stroke="black"/>
<line x1="1274" y1="279.5" x2="1284" y2="279.5" stroke="black"/>
<line x1="1283.5" y1="280" x2="1283.5" y2="275" stroke="black"/>
<line x1="1262.5" y1="280" x2="1262.5" y2="275" stroke="black"/>
<line x1="1262.5" y1="229" x2="1262.5" y2="234" stroke="black"/>
<line x1="1268.5" y1="229" x2="1268.5" y2="239" stroke="black"/>
<line x1="1264.5" y1="233" x2="1264.5" y2="243" stroke="black"/>
<line x1="1262" y1="233.5" x2="1265" y2="233.5" stroke="black"/>
<line x1="1262" y1="229.5" x2="1269" y2="229.5" stroke="black"/>
<line x1="1264" y1="242.5" x2="1307" y2="242.5" stroke="black"/>
<line x1="1268" y1="238.5" x2="1307" y2="238.5" stroke="black"/>
<line x1="1306.5" y1="242" x2="1306.5" y2="321" stroke="black"/>
<line x1="1306.5" y1="239" x2="1306.5" y2="214" stroke="black"/>
<line x1="1310.5" y1="257" x2="1310.5" y2="214" stroke="black"/>
<line x1="1306" y1="214.5" x2="1311" y2="214.5" stroke="black"/>
<line x1="1310" y1="256.5" x2="1415" y2="256.5" stroke="black"/>
<line x1="1414.5" y1="257" x2="1414.5" y2="188" stroke="black"/>
<line x1="1415" y1="188.5" x2="1310" y2="188.5" stroke="black"/>
<line x1="1310.5" y1="188" x2="1310.5" y2="191" stroke="black"/>
<line x1="1306.5" y1="183" x2="1306.5" y2="191" stroke="black"/>
<line x1="1306" y1="190.5" x2="1311" y2="190.5" stroke="black"/>
<line x1="1306" y1="183.5" x2="1311" y2="183.5" stroke="black"/>
<line x1="1306" y1="158.5" x2="1311" y2="158.5" stroke="black"/>
<line x1="1310.5" y1="183" x2="1310.5" y2="185" stroke="black"/>
<line x1="1310" y1="184.5" x2="1353" y2="184.5" stroke="black"/>
<line x1="1352.5" y1="185" x2="1352.5" y2="183" stroke="black"/>
<line x1="1356.5" y1="185" x2="1356.5" y2="183" stroke="black"/>
<line x1="1352" y1="183.5" x2="1357" y2="183.5" stroke="black"/>
<line x1="1356" y1="184.5" x2="1415" y2="184.5" stroke="black"/>
<line x1="1414.5" y1="185" x2="1414.5" y2="115" stroke="black"/>
<line x1="1415" y1="115.5" x2="1356" y2="115.5" stroke="black"/>
<line x1="1356.5" y1="115" x2="1356.5" y2="159" stroke="black"/>
<line x1="1352.5" y1="115" x2="1352.5" y2="153" stroke="black"/>
<line x1="1352.5" y1="156" x2="1352.5" y2="159" stroke="black"/>
<line x1="1347" y1="156.5" x2="1353" y2="156.5" stroke="black"/>
<line x1="1347" y1="152.5" x2="1353" y2="152.5" stroke="black"/>
<line x1="1352" y1="158.5" x2="1357" y2="158.5" stroke="black"/>
<line x1="1347.5" y1="157" x2="1347.5" y2="152" stroke="black"/>
<line x1="1353" y1="115.5" x2="1310" y2="115.5" stroke="black"/>
<line x1="1310.5" y1="115" x2="1310.5" y2="153" stroke="black"/>
<line x1="1310" y1="152.5" x2="1323" y2="152.5" stroke="black"/>
<line x1="1322.5" y1="152" x2="1322.5" y2="157" stroke="black"/>
<line x1="1310" y1="156.5" x2="1323" y2="156.5" stroke="black"/>
<line x1="1310.5" y1="156" x2="1310.5" y2="159" stroke="black"/>
<line x1="1306.5" y1="146" x2="1306.5" y2="159" stroke="black"/>
<line x1="1306.5" y1="56" x2="1306.5" y2="143" stroke="black"/>
<line x1="1238.5" y1="56" x2="1238.5" y2="147" stroke="black"/>
<line x1="1225.5" y1="12" x2="1225.5" y2="139" stroke="black"/>
<line x1="1307" y1="146.5" x2="1262" y2="146.5" stroke="black"/>
<line x1="1307" y1="142.5" x2="1262" y2="142.5" stroke="black"/>
<line x1="1262.5" y1="142" x2="1262.5" y2="147" stroke="black"/>
<line x1="1274" y1="56.5" x2="1307" y2="56.5" stroke="black"/>
<line x1="1238" y1="56.5" x2="1272" y2="56.5" stroke="black"/>
<line x1="1271.5" y1="56" x2="1271.5" y2="96" stroke="black"/>
<line x1="1274.5" y1="56" x2="1274.5" y2="96" stroke="black"/>
<line x1="1274" y1="95.5" x2="1282" y2="95.5" stroke="black"/>
<line x1="1262" y1="95.5" x2="1271" y2="95.5" stroke="black"/>
<line x1="1262" y1="99.5" x2="1282" y2="99.5" stroke="black"/>
<line x1="1281.5" y1="100" x2="1281.5" y2="95" stroke="black"/>
<line x1="1262.5" y1="100" x2="1262.5" y2="95" stroke="black"/>
<line x1="1224" y1="146.5" x2="1239" y2="146.5" stroke="black"/>
<line x1="1072" y1="138.5" x2="1191" y2="138.5" stroke="black"/>
<line x1="1040" y1="146.5" x2="1191" y2="146.5" stroke="black"/>
<line x1="1224" y1="138.5" x2="1226" y2="138.5" stroke="black"/>
<line x1="1224.5" y1="138" x2="1224.5" y2="147" stroke="black"/>
<line x1="1190.5" y1="138" x2="1190.5" y2="147" stroke="black"/>
<line x1="1040.5" y1="138" x2="1040.5" y2="147" stroke="black"/>
<line x1="1005.5" y1="138" x2="1005.5" y2="147" stroke="black"/>
<line x1="1040" y1="138.5" x2="1066" y2="138.5" stroke="black"/>
<line x1="1072.5" y1="139" x2="1072.5" y2="12" stroke="black"/>
<line x1="1065.5" y1="139" x2="1065.5" y2="12" stroke="black"/>
<line x1="1072" y1="12.5" x2="1226" y2="12.5" stroke="black"/>
<line x1="881" y1="12.5" x2="1066" y2="12.5" stroke="black"/>
<line x1="881" y1="138.5" x2="1006" y2="138.5" stroke="black"/>
<line x1="881" y1="142.5" x2="1001" y2="142.5" stroke="black"/>
<line x1="1000.5" y1="142" x2="1000.5" y2="189" stroke="black"/>
<line x1="1004.5" y1="146" x2="1004.5" y2="193" stroke="black"/>
<line x1="1004" y1="146.5" x2="1006" y2="146.5" stroke="black"/>
<line x1="1005" y1="192.5" x2="993" y2="192.5" stroke="black"/>
<line x1="993" y1="188.5" x2="1001" y2="188.5" stroke="black"/>
<line x1="993.5" y1="193" x2="993.5" y2="188" stroke="black"/>
<line x1="969.5" y1="193" x2="969.5" y2="188" stroke="black"/>
<line x1="970" y1="192.5" x2="831" y2="192.5" stroke="black"/>
<line x1="970" y1="188.5" x2="881" y2="188.5" stroke="black"/>
<line x1="881.5" y1="189" x2="881.5" y2="181" stroke="black"/>
<line x1="881.5" y1="158" x2="881.5" y2="142" stroke="black"/>
<line x1="831" y1="184.5" x2="878" y2="184.5" stroke="black"/>
<line x1="877.5" y1="185" x2="877.5" y2="181" stroke="black"/>
<line x1="877" y1="181.5" x2="882" y2="181.5" stroke="black"/>
<line x1="877" y1="157.5" x2="882" y2="157.5" stroke="black"/>
<line x1="831.5" y1="184" x2="831.5" y2="193" stroke="black"/>
<line x1="807.5" y1="69" x2="807.5" y2="193" stroke="black"/>
<line x1="877.5" y1="158" x2="877.5" y2="69" stroke="black"/>
<line x1="808" y1="192.5" x2="764" y2="192.5" stroke="black"/>
<line x1="804" y1="69.5" x2="740" y2="69.5" stroke="black"/>
<line x1="878" y1="69.5" x2="807" y2="69.5" stroke="black"/>
<line x1="690.5" y1="69" x2="690.5" y2="185" stroke="black"/>
<line x1="704" y1="184.5" x2="690" y2="184.5" stroke="black"/>
<line x1="764.5" y1="193" x2="764.5" y2="127" stroke="black"/>
<line x1="664" y1="188.5" x2="687" y2="188.5" stroke="black"/>
<line x1="686.5" y1="189" x2="686.5" y2="12" stroke="black"/>
<line x1="764" y1="127.5" x2="769" y2="127.5" stroke="black"/>
<line x1="511" y1="12.5" x2="342" y2="12.5" stroke="black"/>
<line x1="342.5" y1="12" x2="342.5" y2="139" stroke="black"/>
<line x1="664" y1="192.5" x2="704" y2="192.5" stroke="black"/>
<line x1="703.5" y1="184" x2="703.5" y2="193" stroke="black"/>
<line x1="736.5" y1="69" x2="736.5" y2="193" stroke="black"/>
<line x1="740.5" y1="69" x2="740.5" y2="185" stroke="black"/>
<line x1="742.5" y1="184" x2="742.5" y2="193" stroke="black"/>
<line x1="664.5" y1="188" x2="664.5" y2="193" stroke="black"/>
<line x1="342" y1="138.5" x2="344" y2="138.5" stroke="black"/>
<line x1="344" y1="145.5" x2="328" y2="145.5" stroke="black"/>
<line x1="328.5" y1="146" x2="328.5" y2="44" stroke="black"/>
<line x1="378" y1="145.5" x2="529" y2="145.5" stroke="black"/>
<line x1="378" y1="138.5" x2="510" y2="138.5" stroke="black"/>
<line x1="736" y1="192.5" x2="743" y2="192.5" stroke="black"/>
<line x1="740" y1="184.5" x2="743" y2="184.5" stroke="black"/>
<line x1="510.5" y1="139" x2="510.5" y2="12" stroke="black"/>
<line x1="737" y1="69.5" x2="690" y2="69.5" stroke="black"/>
<line x1="529" y1="138.5" x2="518" y2="138.5" stroke="black"/>
<line x1="518.5" y1="139" x2="518.5" y2="12" stroke="black"/>
<line x1="563" y1="138.5" x2="687" y2="138.5" stroke="black"/>
<line x1="638" y1="142.5" x2="686" y2="142.5" stroke="black"/>
<line x1="567" y1="142.5" x2="635" y2="142.5" stroke="black"/>
<line x1="602" y1="192.5" x2="639" y2="192.5" stroke="black"/>
<line x1="602" y1="188.5" x2="635" y2="188.5" stroke="black"/>
<line x1="567" y1="188.5" x2="576" y2="188.5" stroke="black"/>
<line x1="563" y1="192.5" x2="576" y2="192.5" stroke="black"/>
<line x1="638.5" y1="193" x2="638.5" y2="142" stroke="black"/>
<line x1="567.5" y1="189" x2="567.5" y2="142" stroke="black"/>
<line x1="634.5" y1="189" x2="634.5" y2="142" stroke="black"/>
<line x1="307" y1="142.5" x2="232" y2="142.5" stroke="black"/>
<line x1="378.5" y1="138" x2="378.5" y2="146" stroke="black"/>
<line x1="343.5" y1="138" x2="343.5" y2="146" stroke="black"/>
<line x1="307" y1="145.5" x2="232" y2="145.5" stroke="black"/>
<line x1="232.5" y1="146" x2="232.5" y2="165" stroke="black"/>
<line x1="232.5" y1="142" x2="232.5" y2="91" stroke="black"/>
<line x1="233" y1="91.5" x2="263" y2="91.5" stroke="black"/>
<line x1="563.5" y1="138" x2="563.5" y2="193" stroke="black"/>
<line x1="528.5" y1="138" x2="528.5" y2="146" stroke="black"/>
<line x1="262.5" y1="92" x2="262.5" y2="98" stroke="black"/>
<line x1="263" y1="97.5" x2="267" y2="97.5" stroke="black"/>
<line x1="266.5" y1="97" x2="266.5" y2="57" stroke="black"/>
<line x1="518" y1="12.5" x2="687" y2="12.5" stroke="black"/>
<line x1="228" y1="56.5" x2="328" y2="56.5" stroke="black"/>
<line x1="228.5" y1="45" x2="228.5" y2="57" stroke="black"/>
<line x1="262.5" y1="56" x2="262.5" y2="85" stroke="black"/>
<line x1="263" y1="84.5" x2="232" y2="84.5" stroke="black"/>
<line x1="232.5" y1="78" x2="232.5" y2="85" stroke="black"/>
<line x1="228.5" y1="165" x2="228.5" y2="94" stroke="black"/>
<line x1="222" y1="94.5" x2="229" y2="94.5" stroke="black"/>
<line x1="575.5" y1="188" x2="575.5" y2="193" stroke="black"/>
<line x1="601.5" y1="188" x2="601.5" y2="193" stroke="black"/>
<line x1="288" y1="97.5" x2="307" y2="97.5" stroke="black"/>
<line x1="288" y1="94.5" x2="296" y2="94.5" stroke="black"/>
<line x1="299" y1="94.5" x2="307" y2="94.5" stroke="black"/>
<line x1="233" y1="78.5" x2="227" y2="78.5" stroke="black"/>
<line x1="228.5" y1="78" x2="228.5" y2="85" stroke="black"/>
<line x1="229" y1="84.5" x2="222" y2="84.5" stroke="black"/>
<line x1="222.5" y1="84" x2="222.5" y2="95" stroke="black"/>
<line x1="1182.5" y1="238" x2="1182.5" y2="230" stroke="black"/>
<line x1="288.5" y1="94" x2="288.5" y2="98" stroke="black"/>
<line x1="1182" y1="230.5" x2="1223" y2="230.5" stroke="black"/>
<line x1="306.5" y1="94" x2="306.5" y2="98" stroke="black"/>
<line x1="1154.5" y1="238" x2="1154.5" y2="230" stroke="black"/>
<line x1="295.5" y1="95" x2="295.5" y2="57" stroke="black"/>
<line x1="299.5" y1="95" x2="299.5" y2="57" stroke="black"/>
<line x1="306.5" y1="146" x2="306.5" y2="142" stroke="black"/>
<line x1="1155" y1="230.5" x2="1065" y2="230.5" stroke="black"/>
<line x1="1065.5" y1="231" x2="1065.5" y2="238" stroke="black"/>
<line x1="1038.5" y1="238" x2="1038.5" y2="229" stroke="black"/>
<line x1="1038" y1="229.5" x2="960" y2="229.5" stroke="black"/>
<line x1="736" y1="230.5" x2="651" y2="230.5" stroke="black"/>
<line x1="960.5" y1="238" x2="960.5" y2="229" stroke="black"/>
<line x1="894.5" y1="238" x2="894.5" y2="229" stroke="black"/>
<line x1="830.5" y1="238" x2="830.5" y2="229" stroke="black"/>
<line x1="830" y1="229.5" x2="895" y2="229.5" stroke="black"/>
<line x1="578.5" y1="238" x2="578.5" y2="229" stroke="black"/>
<line x1="579" y1="229.5" x2="344" y2="229.5" stroke="black"/>
<line x1="343.5" y1="229" x2="343.5" y2="239" stroke="black"/>
<line x1="222.5" y1="98" x2="222.5" y2="94" stroke="black"/>
<line x1="651.5" y1="239" x2="651.5" y2="230" stroke="black"/>
<line x1="1269" y1="230.5" x2="1306" y2="230.5" stroke="black"/>
<line x1="768" y1="128.5" x2="804" y2="128.5" stroke="black"/>
</svg>
